<svg xmlns="http://www.w3.org/2000/svg" version="1.1" xmlns:xlink="http://www.w3.org/1999/xlink" width="209" height="190"><svg width="209" height="190" viewBox="0 0 209 190" fill="none" xmlns="http://www.w3.org/2000/svg">
<rect width="209" height="190" rx="20" fill="#B443B0"></rect>
<path d="M106.014 103.488V95.712H122.238V101.952C125.822 96.832 130.718 94.272 136.926 94.272C143.198 94.272 147.422 96.832 149.598 101.952C153.182 96.832 158.046 94.272 164.19 94.272C168.798 94.272 172.35 95.68 174.846 98.496C177.342 101.248 178.59 105.408 178.59 110.976V136.032L184.062 136.32V144H161.214V136.704L164.382 136.416C165.342 136.288 166.014 136.032 166.398 135.648C166.846 135.2 167.102 134.432 167.166 133.344V113.472C167.166 109.952 166.75 107.36 165.918 105.696C165.15 103.968 163.294 103.104 160.35 103.104C157.406 103.104 155.134 104 153.534 105.792C151.998 107.584 151.23 109.984 151.23 112.992V136.032L156.51 136.32V144H133.854V136.704L137.022 136.416C137.982 136.288 138.686 136.032 139.134 135.648C139.582 135.2 139.806 134.4 139.806 133.248V113.472C139.806 109.952 139.39 107.36 138.558 105.696C137.79 103.968 135.902 103.104 132.894 103.104C129.95 103.104 127.71 104.032 126.174 105.888C124.638 107.744 123.87 110.048 123.87 112.8V136.032L129.054 136.32V144H106.398V136.704L109.566 136.416C110.526 136.288 111.23 136.032 111.678 135.648C112.126 135.2 112.35 134.4 112.35 133.248H112.446V106.752C112.446 105.664 112.254 104.928 111.87 104.544C111.55 104.096 110.942 103.84 110.046 103.776L106.014 103.488Z" fill="white"></path>
<path d="M10 105H57.3962C59.5484 105 61.4591 106.377 62.1396 108.419L70.7276 134.183C72.2963 138.889 79.0218 138.684 80.3017 133.892L98.5093 65.71C99.0935 63.5221 101.075 62 103.34 62H175.529C177.36 62 179.045 63.0012 179.92 64.6096L200 101.5" stroke="white" stroke-width="10" stroke-linejoin="round"></path>
<path d="M50.0695 85.048C50.9228 85.048 51.6268 85.3467 52.1815 85.944C52.7788 86.4987 53.0775 87.2027 53.0775 88.056C53.0775 88.9093 52.7788 89.6133 52.1815 90.168C51.6268 90.7227 50.9228 91 50.0695 91H27.6055C26.6668 91 25.9202 90.7227 25.3655 90.168C24.8108 89.6133 24.5335 88.8667 24.5335 87.928C24.5335 87.0747 24.8322 86.3067 25.4295 85.624L39.7015 70.2C41.5362 68.2373 42.9442 66.296 43.9255 64.376C44.9495 62.456 45.4615 60.7707 45.4615 59.32C45.4615 56.9733 44.7575 55.0747 43.3495 53.624C41.9415 52.1733 40.0855 51.448 37.7815 51.448C36.8002 51.448 35.7975 51.6827 34.7735 52.152C33.7922 52.5787 32.8535 53.176 31.9575 53.944C31.1042 54.6693 30.3575 55.5227 29.7175 56.504C29.2908 57.1013 28.8642 57.4853 28.4375 57.656C28.0108 57.8267 27.6055 57.912 27.2215 57.912C26.4108 57.912 25.6642 57.6347 24.9815 57.08C24.3415 56.4827 24.0215 55.8 24.0215 55.032C24.0215 54.4347 24.2135 53.8587 24.5975 53.304C24.9815 52.7493 25.4722 52.1733 26.0695 51.576C27.0082 50.424 28.1388 49.4 29.4615 48.504C30.8268 47.5653 32.2562 46.84 33.7495 46.328C35.2428 45.816 36.7148 45.56 38.1655 45.56C40.9815 45.56 43.4135 46.1147 45.4615 47.224C47.5522 48.3333 49.1522 49.8907 50.2615 51.896C51.4135 53.9013 51.9895 56.2693 51.9895 59C51.9895 61.304 51.2855 63.864 49.8775 66.68C48.5122 69.4533 46.5922 72.184 44.1175 74.872L34.1975 85.688L33.4935 85.048H50.0695Z" fill="white"></path>
</svg><style>@media (prefers-color-scheme: light) { :root { filter: none; } }
@media (prefers-color-scheme: dark) { :root { filter: none; } }
</style></svg>