<svg viewBox="0 0 383 130" fill="none" xmlns="http://www.w3.org/2000/svg" className="w-full h-auto">
<path d="M107.762 68.488V60.712H123.986V66.952C127.57 61.832 132.466 59.272 138.674 59.272C144.946 59.272 149.17 61.832 151.346 66.952C154.93 61.832 159.794 59.272 165.938 59.272C170.546 59.272 174.098 60.68 176.594 63.496C179.09 66.248 180.338 70.408 180.338 75.976V101.032L185.81 101.32V109H162.962V101.704L166.13 101.416C167.09 101.288 167.762 101.032 168.146 100.648C168.594 100.2 168.85 99.432 168.914 98.344V78.472C168.914 74.952 168.498 72.36 167.666 70.696C166.898 68.968 165.042 68.104 162.098 68.104C159.154 68.104 156.882 69 155.282 70.792C153.746 72.584 152.978 74.984 152.978 77.992V101.032L158.258 101.32V109H135.602V101.704L138.77 101.416C139.73 101.288 140.434 101.032 140.882 100.648C141.33 100.2 141.554 99.4 141.554 98.248V78.472C141.554 74.952 141.138 72.36 140.306 70.696C139.538 68.968 137.65 68.104 134.642 68.104C131.698 68.104 129.458 69.032 127.922 70.888C126.386 72.744 125.618 75.048 125.618 77.8V101.032L130.802 101.32V109H108.146V101.704L111.314 101.416C112.274 101.288 112.978 101.032 113.426 100.648C113.874 100.2 114.098 99.4 114.098 98.248H114.194V71.752C114.194 70.664 114.002 69.928 113.618 69.544C113.298 69.096 112.69 68.84 111.794 68.776L107.762 68.488ZM207.91 60.712V101.032L213.382 101.32V109H190.534V101.704L193.702 101.416C195.558 101.224 196.486 100.2 196.486 98.344V71.656C196.486 70.568 196.294 69.832 195.91 69.448C195.59 69.064 194.982 68.872 194.086 68.872L190.726 68.68V60.712H207.91ZM195.814 52.456C194.47 51.112 193.798 49.416 193.798 47.368C193.798 45.32 194.47 43.624 195.814 42.28C197.158 40.872 198.918 40.168 201.094 40.168C203.27 40.168 205.03 40.872 206.374 42.28C207.782 43.624 208.486 45.32 208.486 47.368C208.486 49.416 207.782 51.112 206.374 52.456C205.03 53.736 203.27 54.376 201.094 54.376C198.918 54.376 197.158 53.736 195.814 52.456ZM217.405 68.392V60.712H233.629V66.952C235.293 64.584 237.501 62.728 240.253 61.384C243.005 59.976 245.981 59.272 249.181 59.272C254.045 59.272 257.789 60.68 260.413 63.496C263.101 66.248 264.445 70.408 264.445 75.976V101.032L269.917 101.32V109H247.069V101.704L250.237 101.416C251.197 101.288 251.901 101.032 252.349 100.648C252.797 100.2 253.021 99.4 253.021 98.248V78.472C253.021 74.952 252.477 72.36 251.389 70.696C250.301 68.968 248.221 68.104 245.149 68.104C242.141 68.104 239.741 69.064 237.949 70.984C236.157 72.904 235.261 75.176 235.261 77.8V101.032L240.733 101.32V109H217.885V101.704L221.053 101.416C222.013 101.288 222.717 101.032 223.165 100.648C223.613 100.2 223.837 99.4 223.837 98.248V71.656C223.837 69.736 223.037 68.744 221.437 68.68L217.405 68.392ZM281.395 50.536H287.635V60.712H300.403L299.443 68.776H287.635V94.024C287.635 96.84 288.147 98.824 289.171 99.976C290.195 101.064 291.763 101.608 293.875 101.608C296.051 101.608 298.227 100.936 300.403 99.592L303.283 106.984C300.083 109.224 296.019 110.344 291.091 110.344C288.211 110.344 285.779 109.96 283.795 109.192C281.811 108.488 280.339 107.688 279.379 106.792C278.419 105.896 277.683 104.584 277.171 102.856C276.659 101.128 276.371 99.784 276.307 98.824C276.243 97.8 276.211 96.328 276.211 94.408V68.776H269.395L270.355 61.768C273.363 61.512 275.635 60.456 277.171 58.6C278.707 56.68 280.115 53.992 281.395 50.536ZM341.295 107.176V99.88C337.775 104.872 332.591 107.368 325.743 107.368C315.823 107.368 310.863 101.832 310.863 90.76V71.464C310.863 69.736 310.063 68.84 308.463 68.776L305.391 68.584V60.712H322.287V88.264C322.287 91.656 322.767 94.216 323.727 95.944C324.687 97.672 326.671 98.536 329.679 98.536C332.687 98.536 335.087 97.608 336.879 95.752C338.735 93.896 339.663 91.656 339.663 89.032V71.656C339.663 70.568 339.471 69.832 339.087 69.448C338.767 69 338.159 68.776 337.263 68.776L334.191 68.584V60.712H351.087V107.176C351.087 114.92 349.199 120.584 345.423 124.168C341.711 127.752 336.047 129.544 328.431 129.544C320.879 129.544 314.991 128.488 310.767 126.376V113.032L319.887 112.264V116.872C319.887 118.6 320.687 119.752 322.287 120.328C323.887 120.968 326.095 121.288 328.911 121.288C337.167 121.288 341.295 116.584 341.295 107.176Z" fill="currentColor"/>
<path d="M0 70H63L78 115L101.5 27H356.5L378 66.5" stroke="currentColor" stroke-width="10" stroke-linejoin="round"/>
<path d="M45.0695 50.048C45.9228 50.048 46.6268 50.3467 47.1815 50.944C47.7788 51.4987 48.0775 52.2027 48.0775 53.056C48.0775 53.9093 47.7788 54.6133 47.1815 55.168C46.6268 55.7227 45.9228 56 45.0695 56H22.6055C21.6668 56 20.9202 55.7227 20.3655 55.168C19.8108 54.6133 19.5335 53.8667 19.5335 52.928C19.5335 52.0747 19.8322 51.3067 20.4295 50.624L34.7015 35.2C36.5362 33.2373 37.9442 31.296 38.9255 29.376C39.9495 27.456 40.4615 25.7707 40.4615 24.32C40.4615 21.9733 39.7575 20.0747 38.3495 18.624C36.9415 17.1733 35.0855 16.448 32.7815 16.448C31.8002 16.448 30.7975 16.6827 29.7735 17.152C28.7922 17.5787 27.8535 18.176 26.9575 18.944C26.1042 19.6693 25.3575 20.5227 24.7175 21.504C24.2908 22.1013 23.8642 22.4853 23.4375 22.656C23.0108 22.8267 22.6055 22.912 22.2215 22.912C21.4108 22.912 20.6642 22.6347 19.9815 22.08C19.3415 21.4827 19.0215 20.8 19.0215 20.032C19.0215 19.4347 19.2135 18.8587 19.5975 18.304C19.9815 17.7493 20.4722 17.1733 21.0695 16.576C22.0082 15.424 23.1388 14.4 24.4615 13.504C25.8268 12.5653 27.2562 11.84 28.7495 11.328C30.2428 10.816 31.7148 10.56 33.1655 10.56C35.9815 10.56 38.4135 11.1147 40.4615 12.224C42.5522 13.3333 44.1522 14.8907 45.2615 16.896C46.4135 18.9013 46.9895 21.2693 46.9895 24C46.9895 26.304 46.2855 28.864 44.8775 31.68C43.5122 34.4533 41.5922 37.184 39.1175 39.872L29.1975 50.688L28.4935 50.048H45.0695Z" fill="currentColor"/>
</svg>
