<svg width="85" height="37" viewBox="0 0 85 37" fill="none" xmlns="http://www.w3.org/2000/svg">
<g clip-path="url(#clip0_9203_61894)">
<g clip-path="url(#clip1_9203_61894)">
<path d="M74.4787 17.8594L74.4416 17.8966C74.7018 17.1904 75.2221 16.9302 75.6681 16.9302C76.3 16.9302 76.8575 17.4134 76.8575 18.1196C76.8575 18.2683 76.8575 18.4541 76.7832 18.6771C75.4823 22.0223 72.7318 23.732 70.0557 23.9922C68.8292 26.0736 66.8221 27.5975 63.9601 27.5975C59.8716 27.5975 58.0504 24.3639 58.0504 20.8329C58.0504 16.4842 60.8009 11.6523 65.4097 11.6523C66.4132 11.6523 67.2681 11.8754 67.9743 12.1727C70.0557 12.9532 71.3938 15.6665 71.3938 18.5656C71.3938 19.4948 71.3194 20.424 71.0964 21.3161C72.4717 20.8329 73.7725 19.7178 74.4787 17.8594ZM66.7106 14.7001V14.663C65.8929 14.663 65.4097 15.7408 65.4097 17.0417C65.4097 18.9373 66.4504 20.6842 68.0858 21.3161C68.346 20.4984 68.4575 19.5692 68.4575 18.4913C68.4575 16.4099 67.8256 14.7001 66.7106 14.7001ZM63.9973 24.8842C65.038 24.8842 66.0787 24.4382 66.8964 23.509C64.4805 22.4311 62.9566 19.9037 62.9566 17.4877C62.9566 16.67 63.1053 15.8152 63.3283 15.0718C61.8416 16.2984 60.9867 18.7143 60.9867 20.8329C60.9867 23.5833 62.2876 24.8842 63.9973 24.8842Z" fill="currentColor"/>
<path d="M58.6243 17.8594L58.5871 17.8966C58.8473 17.1905 59.2933 16.8931 59.7393 16.8931C60.3712 16.8931 61.003 17.4507 61.003 18.1569C61.003 18.3427 60.9659 18.4914 60.8915 18.6772C59.442 22.2082 57.2862 26.3338 53.8296 28.7498L53.7553 29.4932C53.3464 33.9534 51.0792 36.7781 48.2172 36.7781C46.0614 36.7781 44.7977 35.2914 44.7977 33.5445C44.7977 30.3852 48.0313 29.233 51.042 27.3003C51.1163 26.5197 51.1535 25.6277 51.1906 24.6241C49.7039 26.2595 48.1057 26.9286 46.6933 26.9286C43.8685 26.9286 41.5641 24.6241 41.5641 21.0932C41.5641 15.6666 45.1322 12.0984 49.1092 12.0984H49.1464C51.8597 12.0984 54.7588 13.5479 54.7588 16.1498C54.7588 17.0047 54.3871 21.6507 54.0898 25.256C56.0968 23.3604 57.7694 20.2754 58.6243 17.8594ZM47.1021 24.2525C48.4774 24.2525 50.3358 23.3975 51.488 19.1975C51.6738 18.2683 51.7853 17.4506 51.7482 16.4842C51.5252 15.4807 50.6703 14.886 49.4437 14.886C46.9163 14.886 44.5004 17.3019 44.5004 20.9816C44.5004 23.2118 45.5411 24.2525 47.1021 24.2525ZM48.5145 34.0649H48.5517C49.3322 34.0649 50.1871 33.5445 50.7446 30.1994C49.1092 31.1657 47.5853 32.1321 47.5853 33.2843C47.5853 33.7675 47.957 34.0649 48.5145 34.0649Z" fill="currentColor"/>
<path d="M42.2163 17.8594L42.1792 17.8966C42.4393 17.1904 42.9597 16.9302 43.4057 16.9302C44.0376 16.9302 44.5951 17.4134 44.5951 18.1196C44.5951 18.2683 44.5951 18.4541 44.5208 18.6771C43.2199 22.0223 40.4694 23.732 37.7933 23.9922C36.5668 26.0736 34.5597 27.5975 31.6977 27.5975C27.6092 27.5975 25.788 24.3639 25.788 20.8329C25.788 16.4842 28.5384 11.6523 33.1473 11.6523C34.1508 11.6523 35.0057 11.8754 35.7119 12.1727C37.7933 12.9532 39.1314 15.6665 39.1314 18.5656C39.1314 19.4948 39.057 20.424 38.834 21.3161C40.2093 20.8329 41.5101 19.7178 42.2163 17.8594ZM34.4482 14.7001V14.663C33.6305 14.663 33.1473 15.7408 33.1473 17.0417C33.1473 18.9373 34.188 20.6842 35.8234 21.3161C36.0836 20.4984 36.1951 19.5692 36.1951 18.4913C36.1951 16.4099 35.5632 14.7001 34.4482 14.7001ZM31.7349 24.8842C32.7756 24.8842 33.8163 24.4382 34.634 23.509C32.2181 22.4311 30.6942 19.9037 30.6942 17.4877C30.6942 16.67 30.8429 15.8152 31.0659 15.0718C29.5792 16.2984 28.7243 18.7143 28.7243 20.8329C28.7243 23.5833 30.0252 24.8842 31.7349 24.8842Z" fill="currentColor"/>
<path d="M27.677 16.6863C27.1566 16.6863 26.7106 16.9465 26.4132 17.6527C25.4469 20.1058 23.4397 24.2687 21.3954 24.2687C20.1082 24.2687 19.1121 23.9776 18.1055 23.6834C17.0776 23.383 16.0388 23.0793 14.6679 23.0793C14.1847 23.0793 13.5156 23.1537 12.8838 23.2652C14.7874 20.6694 15.4985 17.5257 16.1876 11.5834C14.8901 11.5008 13.8347 11.2611 13.0654 11.019C12.2438 18.5555 11.3107 21.4291 7.90314 24.2687C7.45711 24.6404 7.2341 25.1608 7.2341 25.6812C7.2341 26.4989 7.94031 27.2051 8.83237 27.2051C9.12972 27.2051 9.46423 27.0936 9.79875 26.9449C11.6944 26.09 12.8466 25.867 14.259 25.867C15.1572 25.867 16.2319 26.1239 17.3826 26.3988C18.708 26.7156 20.1341 27.0564 21.507 27.0564C24.5176 27.0564 26.4876 24.1201 28.6805 18.4332C28.7921 18.2474 28.8292 18.0244 28.8292 17.8385C28.8292 17.1323 28.2717 16.6863 27.677 16.6863Z" fill="currentColor"/>
<path fill-rule="evenodd" clip-rule="evenodd" d="M13.254 9.48082C13.9271 9.71579 14.9779 9.98935 16.3403 10.0703L16.5633 10.0702C20.7635 10.0702 23.514 7.46835 23.514 4.34616C23.514 2.33904 21.9529 0.777954 19.7599 0.777954C16.8235 0.777954 14.7792 2.78507 13.7385 6.76214C12.4376 6.05593 11.5456 4.79219 11.0995 3.19393C10.8765 2.41338 10.3933 1.93018 9.72426 1.93018C8.90655 1.93018 8.38618 2.56206 8.38618 3.41694C8.38618 5.94443 10.3561 8.3604 13.2553 9.47547L13.254 9.48082ZM16.7864 7.35684C17.3439 4.79219 18.236 3.56562 19.4254 3.56562C20.0573 3.56562 20.4661 3.93731 20.4661 4.60635C20.4661 5.83292 19.1652 7.2825 16.7864 7.35684Z" fill="currentColor"/>
</g>
</g>
<defs>
<clipPath id="clip0_9203_61894">
<rect width="84" height="36" fill="currentColor" transform="translate(0.567429 0.777954)"/>
</clipPath>
<clipPath id="clip1_9203_61894">
<rect width="70" height="36" fill="currentColor" transform="translate(7.2341 0.777954)"/>
</clipPath>
</defs>
</svg>
